<svg id="Layer_1" data-name="Layer 1" xmlns="http://www.w3.org/2000/svg" viewBox="0 0 269.24 276.08"><defs><style>.cls-1,.cls-10,.cls-8{fill:none;}.cls-1,.cls-10,.cls-2,.cls-3,.cls-4,.cls-8{stroke:#fff;stroke-miterlimit:10;}.cls-1{stroke-width:3px;}.cls-2{writing-mode:tb;text-orientation:upright;glyph-orientation-vertical:0deg;letter-spacing:0.05em;}.cls-2,.cls-3{font-size:41px;font-family:Helvetica;}.cls-11,.cls-2,.cls-3,.cls-4{fill:#fff;}.cls-3{letter-spacing:0.2em;}.cls-5{fill:#4d4d4d;}.cls-6{fill:#474748;}.cls-7{fill:#8c8c8c;}.cls-9{fill:#9b917c;}.cls-10{stroke-width:2px;}</style></defs><path class="cls-1" d="M340.19,263.86" transform="translate(-189.74 -258.75)"/><text class="cls-2" transform="translate(21 3.84)">FOOD</text><text class="cls-3" transform="translate(7.14 255.86)">COMA</text><path class="cls-4" d="M384,385.46a18,18,0,0,1,4.24-1.6c2.81-.84,4.7-1,9.73-1.44a57.79,57.79,0,0,1,11.15.06,58.69,58.69,0,0,1,18.34,5.45c8.41,3.89,15.9,7.36,22.07,15.28,9,11.61,9,24.78,8.92,28.54a49.55,49.55,0,0,1-12.43,31.41s-.7,10.91-6.73,7.15c-7.89-8.6-4.79-4.17-4.79-4.17s.19,6.28-6.09,6.47-8.09-4.33-8.09-4.33-3,3.29-1.57,10,1.67,8.13.29,9.6-8.05,2.41-8.26-4.78-2-9.09-2-9.09l-5.18-4.87c-2.88-2.72-8.45-3.64-8.45-3.64a45.2,45.2,0,0,1-17.05-7.94A47,47,0,0,1,362.63,436c-1.68-4.85-7.15-20.38,1.37-34.34,4.57-7.49,12.25-12.19,15.87-13.91" transform="translate(-189.74 -258.75)"/><path class="cls-5" d="M370.78,315.9c1.36-.23,1.51-18.35-5.91-36.86-.54-1.35-7.44-18.38-10.82-17.51-2.9.74-4.39,15.08,1.48,26.36,3,5.72,5.81,6.72,10.06,15.13C369.64,311,370.06,316,370.78,315.9Z" transform="translate(-189.74 -258.75)"/><path class="cls-6" d="M435.39,418.78c5.25-.31,10.51,7.79,10.4,15-.09,6.2-4.18,13.64-9.19,13.76-5.2.14-9.72-7.64-9.92-14.22S430.42,419.08,435.39,418.78Z" transform="translate(-189.74 -258.75)"/><path class="cls-6" d="M392.59,421c7.48.07,12.48,7.88,13.9,13.64.51,2.08,2,7.91-1.69,12.4-3.42,4.22-9.45,4.92-13.83,3.61-7.68-2.28-9.75-10.58-10.08-11.92-.48-1.93-2-7.92,1.9-12.87C383,425.59,386.76,420.93,392.59,421Z" transform="translate(-189.74 -258.75)"/><path class="cls-6" d="M421.36,450c2.23-.28,3.84,2,3.95,2.16,1.27,1.87,1.2,4.54.37,4.91s-2-2.17-3.71-1.95c-1.93.25-2.48,3.81-3.44,3.65-.73-.12-1.18-2.32-.81-4.2C417.79,454.18,418.6,450.3,421.36,450Z" transform="translate(-189.74 -258.75)"/><path class="cls-4" d="M312.75,373.89a50,50,0,0,1,9.92,2.9,44.88,44.88,0,0,1,16,10.5,42.58,42.58,0,0,1,10.12,17.07c1.22,4.14,3.89,13.18.21,22.06-2.19,5.27-4.75,6-7,13.13-1.08,3.37-2.18,6.81-1.49,11.13.63,4,2.16,4.8,2.2,8.51,0,3-.9,7.93-3.74,8.8-3.32,1-7.48-4.13-7.91-4.68-3.3-4.16-2.65-7.74-5.06-8.53-2.17-.71-3.27,2-6.21,2.47-7,1.15-10.91-12.3-18.55-12.13-5.28.12-6.49,6.63-12.72,6.33-3.1-.16-6.69-1.95-7.46-4.58-.9-3.1,2.38-6.37,1.62-7s-4.32,3.9-7.8,3.09a5.08,5.08,0,0,1-3.68-4.81c.18-2.65,3.78-4.52,3.74-4.57s-5.34,5.86-9.34,4.74a6,6,0,0,1-3.84-6.05c.18-2.56,3.05-2.85,3.39-5,.46-2.91-4-4.6-6.3-7.93-5.16-7.42,1.91-20.6,3.74-24a44,44,0,0,1,20-18.67A45.45,45.45,0,0,1,308.37,373" transform="translate(-189.74 -258.75)"/><path class="cls-6" d="M281.18,396.33c3.59,1.31,5.29,5.19,5.51,8.07.45,6-5.17,13.05-11.18,12.22-3.86-.53-7-4.18-7.68-8.11-.88-5.1,2.61-9.23,5.73-11C274.49,396.94,277.72,395.07,281.18,396.33Z" transform="translate(-189.74 -258.75)"/><path class="cls-6" d="M285.83,425.35c3.16,1.75,2.44,8.45.51,9.35a2.18,2.18,0,0,1-2.3-.61c-1.28-1.37,0-4-.71-4.33s-2.3,2.72-3.7,2.4c-1-.22-1.64-2-1.36-3.39C278.84,426.06,283.29,423.94,285.83,425.35Z" transform="translate(-189.74 -258.75)"/><path class="cls-4" d="M418.68,493.82c2.65.45,3.55,6.22,4.19,10.28.71,4.48,1.08,7.12-.64,8.94a5,5,0,0,1-4.88,1.4c-2.86-.94-3.45-5.16-3.62-6.41-.35-2.54.53-2.31.8-7.45.15-2.65,0-3.93,1-5.18C416.12,494.68,417.4,493.61,418.68,493.82Z" transform="translate(-189.74 -258.75)"/><path class="cls-6" d="M314.4,417.51a10,10,0,0,1,7.18,3c.23.23,3.18,3.41,2.63,7.46-.73,5.35-7.13,9-12.66,8.61-3.55-.23-8.35-2.22-9.44-6C300.48,424.94,307.71,417.54,314.4,417.51Z" transform="translate(-189.74 -258.75)"/><path class="cls-7" d="M352.65,260.31c-4.16-4.24-17.12,1-24.5,6.22-5.58,4-8.35,8.27-13.9,16.89-4.39,6.81-4.6,8.53-14.87,29.94-5.63,11.72-6.68,13.54-5.74,14.58,3.05,3.33,22.24-6.71,36.41-21C346.06,290.81,358.56,266.34,352.65,260.31Z" transform="translate(-189.74 -258.75)"/><path class="cls-8" d="M327.39,287" transform="translate(-189.74 -258.75)"/><path class="cls-9" d="M353.76,282.67c-1.79,21.42-1.43,33.47.76,42.73,5.69,24,16.23,40.72,21.64,49.14a178.67,178.67,0,0,0,16.32,21.57l-3.89,2a164.6,164.6,0,0,1-14.39-18.36,159.6,159.6,0,0,1-17.68-34.63c-7.12-19.58-7-35.8-7.4-42.14-.74-11.7,1.87-21.7,2.86-29.06Z" transform="translate(-189.74 -258.75)"/><path class="cls-9" d="M307.23,381.59c.56-4.26,1.41-10.45,2.59-17.9,2-12.38,3-18.78,4.78-25.84a139.85,139.85,0,0,1,10.53-28.06l3.52-2.09a182.45,182.45,0,0,0-16,74.88,3.31,3.31,0,0,1-5.38-1.61" transform="translate(-189.74 -258.75)"/><line class="cls-10" x1="215.01" y1="4.29" x2="215.01" y2="26.81"/><line class="cls-10" x1="215.01" y1="40.81" x2="215.01" y2="72.72"/><ellipse class="cls-11" cx="215.01" cy="33.81" rx="1.95" ry="2.18"/><line class="cls-10" x1="189.25" y1="33.99" x2="208.9" y2="33.99"/><line class="cls-10" x1="221.83" y1="33.87" x2="241.48" y2="33.87"/><line class="cls-10" x1="251.34" y1="53.71" x2="251.34" y2="68.53"/><line class="cls-10" x1="251.34" y1="81.2" x2="251.34" y2="100.37"/><line class="cls-10" x1="233.49" y1="74.95" x2="245.74" y2="74.95"/><line class="cls-10" x1="256.49" y1="74.9" x2="268.74" y2="74.9"/><ellipse class="cls-11" cx="251.34" cy="74.9" rx="1.95" ry="2.18"/></svg>