<svg id="Layer_1" data-name="Layer 1" xmlns="http://www.w3.org/2000/svg" viewBox="0 0 294.08 302.26"><defs><style>.cls-1,.cls-2,.cls-3,.cls-4{fill:none;}.cls-1,.cls-2,.cls-3,.cls-4,.cls-5,.cls-6,.cls-7{stroke:#fff;stroke-miterlimit:10;}.cls-1{stroke-width:1.5px;}.cls-2{stroke-width:3px;}.cls-3{stroke-width:2.5px;}.cls-4{stroke-width:2px;}.cls-5{writing-mode:tb;text-orientation:upright;glyph-orientation-vertical:0deg;letter-spacing:0.05em;}.cls-5,.cls-6{font-size:40.41px;font-family:Helvetica;}.cls-5,.cls-6,.cls-7{fill:#fff;}.cls-6{letter-spacing:0.2em;}</style></defs><path class="cls-1" d="M360.49,397.11a162.89,162.89,0,0,1-23.4-42.77,174.51,174.51,0,0,1-9.87-54.11c-.52-19.37.89-25.66,3.85-37.81" transform="translate(-159.46 -244.38)"/><path class="cls-1" d="M364.25,394.76A162.89,162.89,0,0,1,340.85,352c-.41-1.13-1.11-3-2-5.54-1.7-5.08-7.41-23-8.49-48.5-.24-5.62.65-13.13,1.26-22" transform="translate(-159.46 -244.38)"/><path class="cls-1" d="M360.49,397.11c1,1.17,2.63.24,3.47-.6.64-.64.78-.79.29-1.75" transform="translate(-159.46 -244.38)"/><path class="cls-2" d="M359.94,388.34a19.89,19.89,0,0,1,4.57-1.58c3-.8,5.05-.89,10.42-1.21a61.8,61.8,0,0,1,11.88.41c1.92.26,9.32,1.37,19.38,6.4,8.84,4.42,16.72,8.36,23,17,9.25,12.66,8.78,26.7,8.59,30.71a52.66,52.66,0,0,1-14.26,33.08s-1.09,11.61-7.4,7.41c-8.13-9.42-5-4.6-5-4.6s0,6.7-6.7,6.7-8.48-4.87-8.48-4.87-3.34,3.41-2,10.6,1.53,8.71,0,10.23-8.65,2.32-8.65-5.36-1.83-9.75-1.83-9.75l-5.36-5.36c-3-3-8.9-4.14-8.9-4.14a48.33,48.33,0,0,1-17.91-9,50,50,0,0,1-15.84-23.52c-1.64-5.22-7-22,2.56-36.56,5.11-7.84,13.45-12.6,17.36-14.32" transform="translate(-159.46 -244.38)"/><path class="cls-3" d="M413.62,425.51c5.6-.17,10.95,8.64,10.6,16.33-.29,6.61-4.89,14.4-10.23,14.38-5.55,0-10.12-8.47-10.12-15.48S408.32,425.66,413.62,425.51Z" transform="translate(-159.46 -244.38)"/><path class="cls-3" d="M367.92,426.48c8,.32,13.05,8.81,14.38,15,.49,2.24,1.84,8.5-2.19,13.16-3.79,4.39-10.24,4.95-14.87,3.41-8.11-2.68-10-11.59-10.36-13-.45-2.06-1.84-8.5,2.44-13.64C357.55,431.09,361.72,426.23,367.92,426.48Z" transform="translate(-159.46 -244.38)"/><path class="cls-1" d="M397.66,458.29c2.39-.23,4,2.26,4.14,2.43,1.29,2,1.13,4.88.24,5.24s-2.08-2.37-3.89-2.19c-2.07.21-2.77,4-3.78,3.78-.78-.15-1.19-2.51-.73-4.51C393.72,462.67,394.71,458.57,397.66,458.29Z" transform="translate(-159.46 -244.38)"/><path class="cls-2" d="M284.33,373.71a54.07,54.07,0,0,1,10.48,3.42,47.79,47.79,0,0,1,16.69,11.7,45.48,45.48,0,0,1,10.24,18.52c1.17,4.46,3.72,14.17-.49,23.52-2.5,5.55-5.25,6.22-7.92,13.77-1.26,3.56-2.55,7.19-1.95,11.82.55,4.25,2.15,5.19,2.07,9.14-.06,3.17-1.21,8.43-4.26,9.26-3.58,1-7.85-4.64-8.29-5.24-3.38-4.54-2.57-8.34-5.12-9.26-2.29-.83-3.54,2-6.7,2.44-7.48,1-11.24-13.47-19.38-13.53-5.64,0-7.13,6.86-13.77,6.34-3.3-.26-7.06-2.3-7.8-5.12-.86-3.33,2.74-6.71,2-7.44s-4.72,4-8.41,3.05a5.4,5.4,0,0,1-3.77-5.24c.28-2.82,4.18-4.7,4.14-4.75s-5.89,6.07-10.12,4.75c-2.26-.7-4.2-3.58-3.9-6.58.28-2.72,3.35-2.93,3.78-5.24.58-3.09-4.1-5-6.46-8.65-5.26-8.08,2.7-21.91,4.76-25.47A46.93,46.93,0,0,1,252,375.66a48.46,48.46,0,0,1,27.66-3" transform="translate(-159.46 -244.38)"/><path class="cls-3" d="M250,396.62c3.78,1.51,5.47,5.7,5.61,8.78.28,6.42-5.93,13.75-12.31,12.67-4.1-.69-7.32-4.69-7.92-8.89-.78-5.46,3.07-9.76,6.45-11.58C242.8,397.06,246.31,395.17,250,396.62Z" transform="translate(-159.46 -244.38)"/><path class="cls-4" d="M393.39,505c2.82.57,3.6,6.74,4.15,11.09.6,4.8.92,7.63-1,9.51a5.32,5.32,0,0,1-5.24,1.34c-3-1.1-3.51-5.62-3.66-6.95-.29-2.72.64-2.45,1.1-7.92.24-2.82.1-4.19,1.22-5.48C390.64,505.79,392,504.69,393.39,505Z" transform="translate(-159.46 -244.38)"/><path class="cls-1" d="M300,305.73a147.75,147.75,0,0,0-9.32,20.46c-3.3,9.46-4.92,17.44-8,33-1.8,9-3.13,16.53-4,21.82,0,0,.61,2.92,2.43,2.56" transform="translate(-159.46 -244.38)"/><path class="cls-1" d="M304.92,301.33c-4.15,8.18-7.17,17.25-9.14,22.54A167.7,167.7,0,0,0,285.67,364a154.54,154.54,0,0,0-1.1,17.79,1.67,1.67,0,0,1-1.71,1.86l-1.83,0" transform="translate(-159.46 -244.38)"/><path class="cls-2" d="M330.51,252.34c-4.29-4.66-18.28.49-26.32,5.85-6.07,4-9.16,8.54-15.36,17.55-4.89,7.12-5.18,8.95-16.81,31.44-6.37,12.31-7.56,14.22-6.58,15.35,3.14,3.65,23.91-6.43,39.48-21.2C322.5,284.64,336.61,259,330.51,252.34Z" transform="translate(-159.46 -244.38)"/><path class="cls-4" d="M349.52,313.76c1.46-.2,2.2-19.51-5.12-39.49-.53-1.45-7.34-19.82-11-19-3.13.71-5.18,15.94.73,28.15,3,6.19,6,7.35,10.23,16.46C348.46,308.53,348.75,313.86,349.52,313.76Z" transform="translate(-159.46 -244.38)"/><path class="cls-3" d="M284.69,420.27a10.6,10.6,0,0,1,7.56,3.41c.23.26,3.27,3.74,2.56,8-.95,5.68-7.89,9.35-13.78,8.78-3.77-.37-8.82-2.65-9.87-6.71C269.61,427.74,277.56,420.08,284.69,420.27Z" transform="translate(-159.46 -244.38)"/><path class="cls-2" d="M302.73,281.59" transform="translate(-159.46 -244.38)"/><path class="cls-1" d="M254.9,426.78c3.31,2,2.33,9.1.24,10a2.34,2.34,0,0,1-2.43-.73c-1.32-1.5.12-4.25-.61-4.63s-2.54,2.82-4,2.44c-1-.27-1.7-2.19-1.34-3.66C247.42,427.32,252.24,425.2,254.9,426.78Z" transform="translate(-159.46 -244.38)"/><text class="cls-5" transform="translate(20.7 34.3)">FOOD</text><text class="cls-6" transform="translate(7.84 282.32)">COMA</text><line class="cls-1" x1="234.97" x2="234.97" y2="31.07"/><line class="cls-1" x1="234.97" y1="45.07" x2="234.97" y2="85.29"/><circle class="cls-7" cx="234.97" cy="38.07" r="2.18"/><line class="cls-1" x1="206.16" y1="38.25" x2="228.13" y2="38.25"/><line class="cls-1" x1="242.6" y1="38.14" x2="264.58" y2="38.14"/><line class="cls-1" x1="275.61" y1="60.98" x2="275.61" y2="75.79"/><line class="cls-1" x1="275.61" y1="82.47" x2="275.61" y2="101.64"/><ellipse class="cls-7" cx="275.61" cy="79.13" rx="1.36" ry="1.04"/><line class="cls-1" x1="257.64" y1="79.22" x2="271.35" y2="79.22"/><line class="cls-1" x1="280.37" y1="79.16" x2="294.08" y2="79.16"/></svg>